<?xml version="1.0" encoding="utf-8"?>
<!-- Generator: Adobe Illustrator 21.1.0, SVG Export Plug-In . SVG Version: 6.00 Build 0)  -->
<svg version="1.1" id="Layer_1" xmlns="http://www.w3.org/2000/svg" xmlns:xlink="http://www.w3.org/1999/xlink" x="0px" y="0px"
	 viewBox="0 0 841.9 595.3" style="enable-background:new 0 0 841.9 595.3;" xml:space="preserve">
<style type="text/css">
	.st0{fill:#E6E7E8;}
</style>
<path class="st0" d="M332.9,387.1c6.8-2,13.7-5.5,18.7-9.6c3.2-2.5,7.2-7.2,9.1-10.6c3.1-5.5,5.4-13.1,6.1-20.1
	c0.2-2.1,0.4-4.3,0.4-4.9l0-1l-3.4,1c-6.4,1.9-13.3,5.3-18.4,9.3c-1.9,1.5-2.8,2.4-5.4,5.5c-3.5,4.2-4.9,6.5-6.8,11.4
	c-2,5.3-3.7,13.9-3.7,18.5l0,1.4L332.9,387.1z"/>
<path class="st0" d="M370,407.5c5.7-4.2,10.9-9.9,14.2-15.4c2.1-3.5,4.3-9.3,4.9-13.1c1-6.2,0.6-14.1-1.1-20.9
	c-0.5-2.1-1.1-4.2-1.3-4.7l-0.3-0.9l-2.8,2.1c-5.4,4-10.7,9.5-14.1,15.1c-1.3,2-1.8,3.2-3.2,7c-1.9,5.1-2.4,7.8-2.5,13
	c-0.1,5.7,1.2,14.3,2.9,18.7l0.5,1.3L370,407.5z"/>
<path class="st0" d="M411.7,413.9c3.9-5.9,6.9-13,8.1-19.3c0.8-4,0.9-10.2,0.1-14c-1.2-6.2-4.3-13.5-8.2-19.3
	c-1.2-1.8-2.4-3.6-2.8-4l-0.6-0.8l-2,2.9c-3.7,5.6-6.8,12.6-8.1,19c-0.5,2.4-0.6,3.7-0.6,7.7c0,5.5,0.4,8.1,2.1,13.1
	c1.9,5.4,6.1,13,9.1,16.5l0.9,1.1L411.7,413.9z"/>
<path class="st0" d="M453.2,405.6c1.6-6.9,2-14.6,1-20.9c-0.6-4-2.7-9.8-4.7-13.2c-3.2-5.4-8.6-11.2-14.3-15.3
	c-1.7-1.3-3.5-2.5-4-2.8l-0.8-0.5l-0.9,3.4c-1.6,6.5-2,14.2-1.1,20.6c0.3,2.4,0.7,3.7,2,7.4c1.9,5.1,3.2,7.5,6.5,11.6
	c3.6,4.4,10.2,10.2,14.2,12.4l1.2,0.7L453.2,405.6z"/>
<path class="st0" d="M489.3,383.7c-0.8-7.1-3.1-14.4-6.2-20c-1.9-3.6-5.9-8.3-8.9-10.8c-4.9-4-11.9-7.6-18.7-9.5
	c-2.1-0.6-4.2-1.2-4.7-1.2l-1-0.2l0.4,3.5c0.7,6.7,2.9,14,6,19.8c1.1,2.1,1.9,3.2,4.5,6.3c3.5,4.2,5.5,5.9,10.1,8.7
	c4.9,2.9,13,6.1,17.6,6.8l1.4,0.2L489.3,383.7z"/>
<path class="st0" d="M406.4,170.6c-3.9,5.9-6.9,13-8.1,19.3c-0.8,4-0.9,10.2-0.1,14c1.2,6.2,4.3,13.5,8.2,19.3
	c1.2,1.8,2.5,3.6,2.8,4l0.6,0.8l2-2.9c3.7-5.6,6.8-12.6,8.1-19c0.5-2.3,0.6-3.7,0.6-7.7c0-5.5-0.4-8.1-2.1-13.1
	c-1.9-5.4-6.1-13-9.1-16.5l-0.9-1.1L406.4,170.6z"/>
<path class="st0" d="M365,178.8c-1.6,6.9-2,14.6-1,20.9c0.6,4,2.7,9.8,4.7,13.2c3.2,5.4,8.6,11.2,14.3,15.3c1.7,1.3,3.5,2.5,4,2.8
	l0.8,0.5l0.8-3.4c1.6-6.5,2-14.2,1.1-20.6c-0.3-2.4-0.7-3.7-2-7.4c-1.9-5.1-3.2-7.5-6.5-11.6c-3.6-4.4-10.2-10.2-14.2-12.4l-1.2-0.7
	L365,178.8z"/>
<path class="st0" d="M328.8,200.8c0.8,7.1,3.1,14.4,6.2,20c1.9,3.6,5.9,8.3,8.9,10.8c4.9,4,11.9,7.6,18.7,9.5
	c2.1,0.6,4.2,1.1,4.7,1.2l1,0.2l-0.4-3.5c-0.7-6.7-2.9-14-6-19.7c-1.1-2.1-1.9-3.2-4.5-6.3c-3.5-4.2-5.5-5.9-10-8.7
	c-4.9-2.9-13-6.1-17.6-6.8l-1.4-0.2L328.8,200.8z"/>
<path class="st0" d="M302.4,233.7c3.2,6.4,7.8,12.5,12.7,16.7c3.1,2.7,8.4,5.8,12,7.1c6,2.1,13.8,3,20.8,2.5
	c2.1-0.2,4.3-0.3,4.9-0.5l1-0.2l-1.5-3.2c-3-6-7.5-12.2-12.4-16.5c-1.8-1.6-2.9-2.4-6.3-4.4c-4.7-2.7-7.2-3.7-12.4-4.7
	c-5.6-1.1-14.3-1.3-18.9-0.4l-1.4,0.3L302.4,233.7z"/>
<path class="st0" d="M288.8,273.7c5.2,4.9,11.6,9.1,17.6,11.4c3.8,1.5,9.9,2.6,13.7,2.6c6.3-0.1,14-1.9,20.4-4.7
	c2-0.9,3.9-1.8,4.4-2.1l0.9-0.5l-2.5-2.4c-4.8-4.7-11.2-8.9-17.3-11.3c-2.2-0.9-3.5-1.2-7.5-1.9c-5.4-1-8.1-1-13.3-0.2
	c-5.6,0.9-13.9,3.7-17.9,6.1l-1.2,0.7L288.8,273.7z"/>
<path class="st0" d="M289.7,316c6.5,2.8,14,4.5,20.4,4.7c4.1,0.1,10.2-0.9,13.8-2.3c5.9-2.2,12.5-6.6,17.6-11.4
	c1.5-1.5,3.1-3,3.4-3.5l0.6-0.7l-3.2-1.4c-6.1-2.7-13.6-4.5-20.1-4.7c-2.4-0.1-3.7,0-7.7,0.7c-5.4,0.9-7.9,1.8-12.5,4.4
	c-5,2.8-11.8,8.2-14.7,11.8l-0.9,1.1L289.7,316z"/>
<path class="st0" d="M305,355.4c7.1,0.4,14.7-0.5,20.8-2.6c3.9-1.3,9.2-4.3,12.2-6.9c4.8-4.1,9.5-10.5,12.6-16.8
	c0.9-1.9,1.9-3.9,2-4.4l0.3-0.9l-3.5-0.2c-6.7-0.5-14.3,0.5-20.5,2.5c-2.3,0.7-3.5,1.3-7,3.3c-4.7,2.7-6.8,4.4-10.3,8.4
	c-3.7,4.3-8.2,11.8-9.8,16.2l-0.5,1.3L305,355.4z"/>
<path class="st0" d="M515.7,350.8c-3.2-6.4-7.8-12.5-12.7-16.7c-3.1-2.7-8.4-5.8-12-7.1c-6-2.1-13.8-3-20.8-2.5
	c-2.1,0.2-4.3,0.3-4.9,0.5l-1,0.2l1.5,3.2c3,6,7.5,12.2,12.4,16.5c1.8,1.6,2.9,2.4,6.3,4.4c4.7,2.7,7.2,3.7,12.4,4.7
	c5.6,1.1,14.3,1.2,18.9,0.4l1.4-0.3L515.7,350.8z"/>
<path class="st0" d="M529.3,310.7c-5.2-4.9-11.6-9.1-17.6-11.4c-3.8-1.5-9.9-2.6-13.8-2.6c-6.3,0.1-14,1.9-20.4,4.7
	c-2,0.9-3.9,1.8-4.4,2.1l-0.8,0.5l2.5,2.4c4.8,4.7,11.2,8.9,17.3,11.3c2.2,0.9,3.5,1.2,7.5,1.9c5.4,1,8.1,1,13.3,0.2
	c5.6-0.9,13.9-3.7,17.9-6.1l1.2-0.7L529.3,310.7z"/>
<path class="st0" d="M528.4,268.5c-6.5-2.8-14-4.5-20.4-4.7c-4.1-0.1-10.2,0.9-13.8,2.3c-5.9,2.2-12.5,6.6-17.6,11.4
	c-1.5,1.5-3.1,3-3.4,3.5l-0.6,0.7l3.2,1.4c6.1,2.7,13.6,4.5,20.1,4.7c2.4,0.1,3.7,0,7.7-0.7c5.4-0.9,7.9-1.8,12.5-4.4
	c5-2.8,11.8-8.2,14.7-11.8l0.9-1.1L528.4,268.5z"/>
<path class="st0" d="M513.1,229.1c-7.1-0.4-14.7,0.5-20.8,2.6c-3.9,1.3-9.2,4.3-12.2,6.9c-4.8,4.1-9.5,10.5-12.6,16.8
	c-0.9,1.9-1.9,3.9-2,4.4l-0.3,0.9l3.5,0.2c6.7,0.4,14.3-0.5,20.5-2.5c2.3-0.7,3.5-1.3,7-3.3c4.7-2.7,6.8-4.4,10.3-8.4
	c3.7-4.3,8.2-11.8,9.8-16.2l0.5-1.3L513.1,229.1z"/>
<path class="st0" d="M485.2,197.3c-6.8,2-13.7,5.5-18.6,9.6c-3.2,2.5-7.2,7.2-9.1,10.6c-3.1,5.5-5.4,13.1-6.1,20.1
	c-0.2,2.1-0.4,4.3-0.4,4.9l0,1l3.4-1c6.5-1.9,13.3-5.3,18.4-9.3c1.9-1.5,2.8-2.4,5.4-5.5c3.5-4.2,4.9-6.5,6.8-11.4
	c2-5.3,3.7-13.9,3.7-18.5l0-1.4L485.2,197.3z"/>
<path class="st0" d="M448.2,177c-5.7,4.2-10.9,9.9-14.3,15.4c-2.1,3.5-4.3,9.3-4.9,13.1c-1,6.2-0.6,14.1,1.1,20.9
	c0.5,2.1,1.1,4.2,1.3,4.7l0.3,0.9l2.8-2.1c5.4-4,10.7-9.5,14.1-15c1.3-2,1.8-3.2,3.2-7c1.9-5.1,2.4-7.8,2.5-13
	c0.1-5.7-1.2-14.3-2.9-18.7l-0.5-1.3L448.2,177z"/>
<path class="st0" d="M434.3,130.8c-4.9,5.1-9.2,11.6-11.5,17.5c-1.5,3.8-2.7,9.8-2.7,13.7c0,6.3,1.7,14,4.5,20.5
	c0.9,2,1.8,3.9,2,4.4l0.5,0.9l2.5-2.5c4.7-4.8,9-11.2,11.4-17.2c0.9-2.2,1.3-3.5,2-7.4c1-5.4,1.1-8.1,0.3-13.3
	c-0.8-5.6-3.6-13.9-5.9-17.9l-0.7-1.2L434.3,130.8z"/>
<path class="st0" d="M377.6,131.9c-2.9,6.5-4.7,14-4.8,20.4c-0.1,4.1,0.8,10.2,2.2,13.8c2.2,5.9,6.4,12.6,11.3,17.7
	c1.5,1.6,3,3.1,3.4,3.5l0.7,0.6l1.5-3.2c2.8-6.1,4.6-13.5,4.9-20c0.1-2.4,0-3.7-0.6-7.7c-0.9-5.4-1.8-7.9-4.3-12.6
	c-2.7-5-8.1-11.8-11.7-14.8l-1.1-0.9L377.6,131.9z"/>
<path class="st0" d="M324.6,152.3c-0.5,7.1,0.4,14.7,2.4,20.8c1.3,3.9,4.3,9.3,6.8,12.2c4.1,4.8,10.4,9.6,16.6,12.8
	c1.9,1,3.9,1.9,4.4,2.1l0.9,0.4l0.3-3.5c0.5-6.7-0.3-14.3-2.3-20.5c-0.7-2.3-1.3-3.5-3.2-7c-2.7-4.8-4.4-6.8-8.3-10.4
	c-4.3-3.8-11.7-8.4-16.1-9.9l-1.3-0.5L324.6,152.3z"/>
<path class="st0" d="M281.9,189.6c2,6.8,5.4,13.7,9.4,18.7c2.5,3.2,7.2,7.3,10.5,9.2c5.5,3.1,13,5.5,20,6.3c2.1,0.2,4.3,0.5,4.9,0.4
	l1,0l-0.9-3.4c-1.8-6.5-5.2-13.3-9.1-18.5c-1.5-1.9-2.4-2.9-5.4-5.5c-4.2-3.5-6.4-4.9-11.3-6.9c-5.3-2.1-13.8-3.8-18.5-3.8h-1.4
	L281.9,189.6z"/>
<path class="st0" d="M254.4,239.3c4.2,5.7,9.8,11,15.2,14.4c3.5,2.2,9.2,4.4,13,5c6.2,1.1,14.1,0.7,21-0.9c2.1-0.5,4.2-1,4.7-1.2
	l0.9-0.3l-2-2.9c-3.9-5.5-9.4-10.8-14.9-14.3c-2-1.3-3.2-1.9-7-3.3c-5.1-1.9-7.8-2.4-13-2.6c-5.7-0.1-14.3,1.1-18.7,2.7l-1.3,0.5
	L254.4,239.3z"/>
<path class="st0" d="M245.6,295.4c5.9,4,13,7,19.2,8.3c4,0.9,10.1,1,14,0.3c6.2-1.1,13.5-4.2,19.4-8c1.8-1.2,3.6-2.4,4-2.8l0.8-0.6
	l-2.9-2c-5.5-3.8-12.5-6.9-18.9-8.3c-2.3-0.5-3.7-0.7-7.7-0.7c-5.5-0.1-8.1,0.4-13.1,2c-5.4,1.8-13.1,5.9-16.6,8.9l-1.1,0.9
	L245.6,295.4z"/>
<path class="st0" d="M256.6,351.1c6.9,1.7,14.6,2.2,20.9,1.2c4-0.6,9.9-2.6,13.2-4.5c5.5-3.2,11.3-8.5,15.5-14.2
	c1.3-1.7,2.5-3.5,2.8-4l0.5-0.8l-3.4-0.9c-6.5-1.7-14.1-2.2-20.6-1.3c-2.4,0.3-3.7,0.6-7.4,2c-5.2,1.8-7.5,3.1-11.6,6.4
	c-4.4,3.5-10.3,10.1-12.6,14.1l-0.7,1.2L256.6,351.1z"/>
<path class="st0" d="M285.9,399.7c7.1-0.8,14.5-3,20.1-6c3.6-1.9,8.4-5.8,10.9-8.8c4-4.9,7.7-11.9,9.7-18.6c0.6-2.1,1.2-4.2,1.3-4.7
	l0.2-1l-3.5,0.3c-6.7,0.7-14,2.8-19.8,5.8c-2.1,1.1-3.2,1.9-6.3,4.4c-4.2,3.5-6,5.5-8.8,10c-3,4.8-6.2,13-7,17.5l-0.3,1.4
	L285.9,399.7z"/>
<path class="st0" d="M330.1,435.3c6.4-3.1,12.6-7.7,16.8-12.5c2.7-3,5.9-8.3,7.2-12c2.1-5.9,3.2-13.8,2.7-20.8
	c-0.1-2.2-0.3-4.3-0.4-4.9l-0.2-1l-3.2,1.5c-6.1,2.9-12.2,7.4-16.6,12.2c-1.6,1.8-2.4,2.8-4.4,6.3c-2.8,4.7-3.8,7.2-4.8,12.4
	c-1.1,5.6-1.4,14.3-0.6,18.9l0.2,1.4L330.1,435.3z"/>
<path class="st0" d="M383.8,453.7c4.9-5.1,9.2-11.6,11.5-17.5c1.5-3.8,2.7-9.8,2.7-13.7c0-6.3-1.7-14-4.5-20.5c-0.9-2-1.8-4-2-4.4
	l-0.5-0.9l-2.5,2.5c-4.7,4.8-9,11.2-11.5,17.2c-0.9,2.2-1.3,3.5-2,7.4c-1,5.4-1.1,8.1-0.3,13.3c0.8,5.6,3.6,13.9,5.9,17.9l0.7,1.2
	L383.8,453.7z"/>
<path class="st0" d="M440.5,452.6c2.9-6.5,4.7-14,4.9-20.4c0.1-4.1-0.8-10.2-2.2-13.8c-2.2-5.9-6.4-12.6-11.3-17.7
	c-1.5-1.6-3-3.1-3.4-3.5l-0.7-0.7l-1.5,3.2c-2.8,6.1-4.6,13.6-4.9,20c-0.1,2.4,0,3.7,0.6,7.7c0.9,5.4,1.8,7.9,4.3,12.6
	c2.7,5,8.1,11.8,11.7,14.8l1.1,0.9L440.5,452.6z"/>
<path class="st0" d="M493.5,432.2c0.5-7.1-0.4-14.7-2.4-20.8c-1.3-3.9-4.2-9.3-6.8-12.2c-4.1-4.8-10.4-9.6-16.6-12.8
	c-1.9-1-3.9-1.9-4.4-2.1l-0.9-0.4l-0.3,3.5c-0.5,6.7,0.3,14.3,2.3,20.5c0.7,2.3,1.3,3.5,3.2,7c2.7,4.8,4.4,6.8,8.3,10.4
	c4.3,3.8,11.7,8.3,16.1,9.9l1.3,0.5L493.5,432.2z"/>
<path class="st0" d="M536.3,394.9c-2-6.8-5.4-13.7-9.4-18.7c-2.5-3.2-7.2-7.3-10.5-9.2c-5.5-3.1-13-5.5-20-6.3
	c-2.1-0.2-4.3-0.5-4.9-0.4l-1,0l0.9,3.4c1.8,6.5,5.2,13.3,9.1,18.5c1.5,1.9,2.4,2.9,5.4,5.5c4.2,3.6,6.5,4.9,11.3,6.9
	c5.3,2.1,13.8,3.8,18.5,3.8h1.4L536.3,394.9z"/>
<path class="st0" d="M563.7,345.2c-4.2-5.7-9.8-11-15.2-14.4c-3.4-2.2-9.2-4.4-13.1-5c-6.2-1.1-14.1-0.7-20.9,0.9
	c-2.1,0.5-4.2,1-4.7,1.2l-0.9,0.3l2,2.9c3.9,5.5,9.4,10.8,14.9,14.3c2,1.3,3.2,1.9,7,3.3c5.1,1.9,7.8,2.4,13,2.6
	c5.7,0.1,14.3-1.1,18.7-2.7l1.3-0.5L563.7,345.2z"/>
<path class="st0" d="M572.5,289.1c-5.9-4-13-7-19.2-8.3c-4-0.8-10.2-1-14-0.3c-6.2,1.1-13.5,4.2-19.4,8c-1.8,1.2-3.6,2.4-4,2.8
	l-0.8,0.6l2.9,2c5.5,3.8,12.5,6.9,18.9,8.3c2.3,0.5,3.7,0.7,7.7,0.7c5.5,0.1,8.1-0.4,13.1-2c5.4-1.8,13.1-5.9,16.6-8.9l1.1-0.9
	L572.5,289.1z"/>
<path class="st0" d="M561.5,233.4c-6.9-1.7-14.6-2.2-20.9-1.2c-4,0.6-9.9,2.6-13.2,4.5c-5.5,3.2-11.3,8.5-15.5,14.2
	c-1.3,1.7-2.5,3.5-2.8,4l-0.5,0.8l3.4,0.9c6.5,1.7,14.1,2.2,20.6,1.3c2.4-0.3,3.7-0.6,7.4-2c5.2-1.8,7.5-3.1,11.6-6.4
	c4.4-3.5,10.3-10.1,12.6-14.1l0.7-1.2L561.5,233.4z"/>
<path class="st0" d="M532.2,184.8c-7.1,0.7-14.5,3-20.1,6c-3.6,1.9-8.4,5.8-10.9,8.8c-4,4.9-7.7,11.9-9.7,18.6
	c-0.6,2.1-1.2,4.2-1.3,4.7l-0.2,1l3.5-0.3c6.7-0.7,14-2.8,19.8-5.8c2.1-1.1,3.2-1.8,6.3-4.4c4.2-3.5,6-5.5,8.8-10
	c3-4.8,6.2-13,7-17.5l0.2-1.4L532.2,184.8z"/>
<path class="st0" d="M488,149.1c-6.4,3.1-12.6,7.7-16.8,12.5c-2.7,3-5.9,8.3-7.2,12c-2.1,5.9-3.2,13.8-2.7,20.8
	c0.1,2.1,0.3,4.3,0.4,4.9l0.2,1l3.2-1.5c6.1-2.9,12.2-7.4,16.6-12.2c1.6-1.8,2.4-2.8,4.4-6.3c2.8-4.7,3.8-7.2,4.8-12.4
	c1.1-5.6,1.4-14.3,0.6-18.9l-0.2-1.4L488,149.1z"/>
<path class="st0" d="M338.2,110.8c-1.6,6.9-2,14.6-1,20.9c0.6,4,2.7,9.8,4.7,13.2c3.2,5.4,8.6,11.2,14.3,15.3c1.7,1.3,3.5,2.5,4,2.8
	l0.8,0.5l0.9-3.4c1.6-6.5,2-14.2,1.1-20.6c-0.3-2.4-0.7-3.7-2-7.4c-1.9-5.1-3.2-7.5-6.5-11.6c-3.6-4.4-10.2-10.2-14.2-12.4l-1.2-0.7
	L338.2,110.8z"/>
<path class="st0" d="M280.4,146c0.8,7.1,3.1,14.4,6.2,20c1.9,3.6,5.9,8.3,8.9,10.8c4.9,4,11.9,7.6,18.7,9.5c2.1,0.6,4.2,1.2,4.7,1.2
	l1,0.2l-0.4-3.5c-0.7-6.7-2.9-14-6-19.7c-1.1-2.1-1.9-3.2-4.5-6.3c-3.5-4.2-5.5-5.9-10-8.7c-4.9-2.9-13-6.1-17.6-6.8l-1.4-0.2
	L280.4,146z"/>
<path class="st0" d="M238.2,198.8c3.2,6.4,7.8,12.5,12.7,16.7c3.1,2.7,8.4,5.8,12,7.1c6,2.1,13.8,3,20.8,2.5
	c2.1-0.2,4.3-0.3,4.9-0.5l1-0.2l-1.5-3.2c-3-6-7.5-12.2-12.4-16.5c-1.8-1.6-2.9-2.4-6.3-4.4c-4.7-2.7-7.2-3.7-12.4-4.7
	c-5.6-1.1-14.3-1.3-18.9-0.4l-1.4,0.2L238.2,198.8z"/>
<path class="st0" d="M216.5,262.9c5.2,4.9,11.6,9.1,17.6,11.4c3.8,1.5,9.9,2.6,13.7,2.6c6.3-0.1,14-1.9,20.4-4.7
	c2-0.9,3.9-1.8,4.4-2.1l0.8-0.5l-2.5-2.4c-4.8-4.7-11.2-8.8-17.3-11.3c-2.2-0.9-3.5-1.2-7.5-1.9c-5.4-0.9-8.1-1-13.3-0.2
	c-5.6,0.9-13.9,3.7-17.9,6.1l-1.2,0.7L216.5,262.9z"/>
<path class="st0" d="M218.1,330.5c6.5,2.8,14,4.5,20.4,4.7c4.1,0.1,10.2-0.9,13.8-2.3c5.9-2.2,12.5-6.6,17.6-11.4
	c1.5-1.5,3.1-3,3.4-3.5l0.6-0.7l-3.2-1.4c-6.1-2.7-13.6-4.5-20.1-4.7c-2.4-0.1-3.7,0-7.7,0.7c-5.4,0.9-7.9,1.8-12.5,4.4
	c-5,2.8-11.8,8.2-14.7,11.8l-0.9,1.1L218.1,330.5z"/>
<path class="st0" d="M242.7,393.5c7.1,0.4,14.7-0.5,20.8-2.6c3.9-1.3,9.2-4.3,12.2-6.9c4.8-4.1,9.5-10.4,12.6-16.8
	c0.9-1.9,1.9-3.9,2-4.4l0.3-0.9l-3.5-0.2c-6.7-0.4-14.3,0.5-20.5,2.5c-2.3,0.7-3.5,1.3-7,3.3c-4.7,2.7-6.8,4.4-10.3,8.4
	c-3.7,4.3-8.2,11.8-9.8,16.2l-0.5,1.3L242.7,393.5z"/>
<path class="st0" d="M287.4,444.3c6.8-2,13.7-5.6,18.6-9.6c3.2-2.5,7.2-7.2,9.1-10.6c3.1-5.5,5.4-13.1,6.1-20.1
	c0.2-2.1,0.4-4.3,0.4-4.9l0-1l-3.4,1c-6.5,1.9-13.3,5.3-18.4,9.3c-1.9,1.5-2.8,2.4-5.4,5.5c-3.5,4.2-4.9,6.5-6.8,11.4
	c-2,5.3-3.7,13.9-3.7,18.5l0,1.4L287.4,444.3z"/>
<path class="st0" d="M346.7,476.7c5.7-4.2,10.9-9.9,14.3-15.4c2.1-3.5,4.3-9.3,4.9-13.1c1-6.2,0.6-14.1-1.1-20.9
	c-0.5-2.1-1.1-4.2-1.3-4.7l-0.3-0.9l-2.8,2.1c-5.4,4-10.7,9.5-14.1,15c-1.3,2-1.8,3.2-3.2,7c-1.9,5.1-2.4,7.8-2.5,13
	c-0.1,5.7,1.3,14.3,2.9,18.7l0.5,1.3L346.7,476.7z"/>
<path class="st0" d="M413.6,486.9c3.9-5.9,6.9-13,8.1-19.3c0.8-4,0.9-10.2,0.1-14c-1.2-6.2-4.3-13.5-8.2-19.3
	c-1.2-1.8-2.4-3.6-2.8-4l-0.6-0.8l-2,2.9c-3.7,5.6-6.8,12.6-8.1,19c-0.5,2.3-0.6,3.7-0.6,7.7c0,5.5,0.4,8.1,2.1,13.1
	c1.9,5.4,6.1,13,9.1,16.5l0.9,1.1L413.6,486.9z"/>
<path class="st0" d="M479.9,473.7c1.7-6.9,2-14.6,1-20.9c-0.6-4-2.7-9.8-4.7-13.2c-3.2-5.4-8.6-11.2-14.3-15.3
	c-1.7-1.3-3.5-2.5-4-2.8l-0.8-0.5l-0.9,3.4c-1.6,6.5-2,14.2-1.1,20.6c0.3,2.4,0.7,3.7,2,7.4c1.9,5.1,3.2,7.5,6.5,11.6
	c3.6,4.4,10.2,10.2,14.2,12.4l1.2,0.7L479.9,473.7z"/>
<path class="st0" d="M537.7,438.5c-0.8-7.1-3.1-14.4-6.2-20c-1.9-3.6-5.9-8.3-8.9-10.8c-4.9-4-11.9-7.6-18.7-9.5
	c-2.1-0.6-4.2-1.1-4.7-1.2l-1-0.2l0.4,3.5c0.7,6.7,2.9,14,6,19.7c1.1,2.1,1.9,3.2,4.5,6.3c3.5,4.2,5.5,5.9,10.1,8.7
	c4.9,2.9,13,6.1,17.6,6.8l1.4,0.2L537.7,438.5z"/>
<path class="st0" d="M579.9,385.7c-3.2-6.4-7.9-12.5-12.7-16.7c-3-2.7-8.4-5.8-12-7.1c-6-2.1-13.8-3-20.8-2.5
	c-2.1,0.2-4.3,0.3-4.9,0.5l-1,0.2l1.5,3.2c3,6,7.5,12.2,12.4,16.5c1.8,1.6,2.9,2.4,6.3,4.4c4.7,2.7,7.2,3.7,12.4,4.7
	c5.6,1.1,14.3,1.2,18.9,0.4l1.4-0.3L579.9,385.7z"/>
<path class="st0" d="M601.6,321.6c-5.2-4.9-11.6-9.1-17.6-11.4c-3.8-1.5-9.9-2.6-13.7-2.6c-6.3,0.1-14,1.9-20.4,4.7
	c-2,0.9-3.9,1.8-4.4,2.1l-0.9,0.5l2.5,2.4c4.8,4.6,11.2,8.8,17.3,11.3c2.2,0.9,3.5,1.2,7.5,1.9c5.4,1,8.1,1,13.3,0.2
	c5.6-0.9,13.9-3.7,17.9-6.1l1.2-0.7L601.6,321.6z"/>
<path class="st0" d="M600,254c-6.5-2.8-14-4.5-20.4-4.7c-4.1-0.1-10.2,0.9-13.8,2.3c-5.9,2.2-12.5,6.6-17.6,11.4
	c-1.5,1.5-3.1,3-3.4,3.5l-0.6,0.7l3.2,1.4c6.1,2.7,13.6,4.5,20.1,4.7c2.4,0.1,3.7,0,7.7-0.7c5.4-0.9,7.9-1.8,12.5-4.4
	c5-2.8,11.8-8.2,14.7-11.8l0.9-1.1L600,254z"/>
<path class="st0" d="M575.4,191c-7.1-0.4-14.7,0.5-20.8,2.6c-3.9,1.3-9.2,4.3-12.2,6.9c-4.8,4.1-9.5,10.5-12.6,16.8
	c-0.9,1.9-1.9,3.9-2,4.4l-0.3,0.9l3.5,0.2c6.7,0.4,14.3-0.5,20.5-2.5c2.3-0.7,3.5-1.3,7-3.3c4.7-2.7,6.8-4.4,10.3-8.4
	c3.7-4.3,8.2-11.8,9.8-16.2l0.5-1.3L575.4,191z"/>
<path class="st0" d="M530.8,140.2c-6.8,2-13.7,5.5-18.6,9.6c-3.2,2.5-7.2,7.2-9.1,10.6c-3.1,5.5-5.4,13.1-6.1,20.1
	c-0.2,2.1-0.4,4.3-0.4,4.9l0,1l3.4-1c6.5-1.9,13.3-5.3,18.4-9.3c1.9-1.5,2.8-2.4,5.4-5.5c3.5-4.2,4.9-6.5,6.8-11.4
	c2-5.3,3.7-13.9,3.7-18.5l0-1.4L530.8,140.2z"/>
<path class="st0" d="M471.4,107.7c-5.7,4.2-10.9,9.9-14.3,15.4c-2.1,3.5-4.3,9.3-4.9,13.1c-1,6.2-0.6,14.1,1.1,20.9
	c0.5,2.1,1.1,4.2,1.3,4.7l0.3,0.9l2.8-2.1c5.4-4,10.7-9.5,14.1-15.1c1.3-2,1.8-3.2,3.2-7c1.9-5.1,2.4-7.8,2.5-13
	c0.1-5.7-1.3-14.3-2.9-18.7l-0.5-1.3L471.4,107.7z"/>
<path class="st0" d="M404.5,97.5c-3.9,5.9-6.9,13-8.1,19.3c-0.8,4-0.9,10.2-0.1,14c1.2,6.2,4.3,13.5,8.2,19.3c1.2,1.8,2.5,3.6,2.8,4
	l0.6,0.8l2-2.9c3.7-5.6,6.8-12.6,8.1-19c0.5-2.3,0.6-3.7,0.6-7.7c0-5.5-0.4-8.1-2.1-13.1c-1.9-5.4-6.1-13-9.1-16.5l-0.9-1.1
	L404.5,97.5z"/>
<path class="st0" d="M363.6,60c-2.9,6.5-4.7,14-4.9,20.4c-0.1,4.1,0.8,10.2,2.2,13.8c2.2,5.9,6.4,12.6,11.3,17.7
	c1.5,1.6,3,3.1,3.4,3.5l0.7,0.6l1.5-3.2c2.8-6.1,4.6-13.5,4.9-20c0.1-2.4,0-3.7-0.6-7.7c-0.9-5.4-1.8-7.9-4.3-12.6
	c-2.7-5-8.1-11.8-11.7-14.8l-1.1-0.9L363.6,60z"/>
<path class="st0" d="M286.9,89.5c-0.5,7.1,0.4,14.7,2.4,20.8c1.3,3.9,4.2,9.3,6.8,12.2c4.1,4.8,10.4,9.6,16.6,12.8
	c1.9,1,3.9,1.9,4.4,2.1l0.9,0.4l0.3-3.5c0.5-6.7-0.3-14.3-2.3-20.5c-0.7-2.3-1.3-3.5-3.2-7c-2.7-4.8-4.4-6.8-8.3-10.4
	c-4.3-3.8-11.7-8.3-16.1-9.9l-1.3-0.5L286.9,89.5z"/>
<path class="st0" d="M224.9,143.5c2,6.8,5.4,13.7,9.4,18.7c2.5,3.2,7.2,7.3,10.5,9.2c5.5,3.1,13,5.5,20,6.3c2.1,0.2,4.3,0.5,4.9,0.4
	l1,0l-0.9-3.4c-1.8-6.5-5.2-13.3-9.1-18.5c-1.5-1.9-2.4-2.9-5.4-5.5c-4.2-3.6-6.4-4.9-11.3-6.9c-5.3-2.1-13.8-3.9-18.5-3.8l-1.4,0
	L224.9,143.5z"/>
<path class="st0" d="M185.2,215.5c4.2,5.7,9.8,11,15.2,14.4c3.5,2.2,9.2,4.4,13,5c6.2,1.1,14.1,0.7,21-0.9c2.1-0.5,4.2-1,4.7-1.2
	l0.9-0.3l-2-2.9c-3.9-5.5-9.4-10.8-14.9-14.3c-2-1.3-3.2-1.9-7-3.3c-5.1-1.9-7.7-2.4-13-2.6c-5.7-0.1-14.3,1.1-18.7,2.7l-1.3,0.5
	L185.2,215.5z"/>
<path class="st0" d="M172.4,296.7c5.9,4,13,7,19.2,8.3c4,0.9,10.2,1,14,0.3c6.2-1.1,13.5-4.2,19.4-8c1.8-1.2,3.6-2.4,4-2.8l0.8-0.6
	l-2.9-2c-5.5-3.8-12.5-6.9-18.9-8.3c-2.3-0.5-3.7-0.7-7.7-0.7c-5.5-0.1-8.1,0.4-13.1,2c-5.4,1.8-13.1,5.9-16.6,8.9l-1.1,0.9
	L172.4,296.7z"/>
<path class="st0" d="M188.2,377.3c6.9,1.7,14.6,2.2,20.9,1.2c4-0.6,9.9-2.6,13.2-4.5c5.5-3.2,11.3-8.5,15.5-14.2
	c1.3-1.7,2.5-3.5,2.8-4l0.5-0.8l-3.4-0.9c-6.5-1.7-14.1-2.2-20.6-1.3c-2.4,0.3-3.7,0.6-7.5,2c-5.2,1.8-7.5,3.1-11.6,6.4
	c-4.4,3.5-10.3,10.1-12.6,14.1l-0.7,1.2L188.2,377.3z"/>
<path class="st0" d="M230.6,447.7c7.1-0.7,14.5-3,20.1-6c3.6-1.9,8.4-5.8,10.9-8.8c4-4.9,7.7-11.9,9.7-18.6c0.6-2.1,1.2-4.2,1.3-4.7
	l0.2-1l-3.5,0.3c-6.7,0.7-14,2.8-19.8,5.8c-2.1,1.1-3.2,1.8-6.3,4.4c-4.2,3.5-6,5.5-8.8,10c-3,4.8-6.2,13-7,17.5l-0.3,1.4
	L230.6,447.7z"/>
<path class="st0" d="M294.6,499.4c6.4-3.1,12.6-7.7,16.8-12.5c2.7-3,5.9-8.3,7.2-12c2.1-5.9,3.2-13.8,2.7-20.8
	c-0.1-2.1-0.3-4.3-0.4-4.9l-0.1-1l-3.2,1.5c-6.1,2.9-12.2,7.4-16.6,12.2c-1.6,1.8-2.4,2.8-4.4,6.3c-2.8,4.7-3.8,7.2-4.8,12.4
	c-1.1,5.6-1.4,14.3-0.6,18.9l0.2,1.4L294.6,499.4z"/>
<path class="st0" d="M372.3,526.1c4.9-5.1,9.2-11.6,11.5-17.5c1.5-3.8,2.7-9.8,2.7-13.7c0-6.3-1.7-14-4.5-20.5c-0.9-2-1.8-4-2.1-4.4
	l-0.5-0.9l-2.5,2.5c-4.7,4.8-9,11.2-11.4,17.2c-0.9,2.2-1.3,3.5-2,7.4c-1,5.4-1.1,8.1-0.3,13.3c0.8,5.6,3.6,13.9,5.9,17.9l0.7,1.2
	L372.3,526.1z"/>
<path class="st0" d="M454.5,524.5c2.9-6.5,4.7-14,4.9-20.4c0.1-4.1-0.8-10.2-2.2-13.8c-2.2-5.9-6.4-12.6-11.3-17.7
	c-1.5-1.5-3-3.1-3.4-3.5l-0.7-0.6l-1.5,3.2c-2.8,6.1-4.6,13.5-4.9,20c-0.1,2.4,0,3.7,0.7,7.7c0.9,5.4,1.8,7.9,4.2,12.6
	c2.7,5,8.1,11.8,11.7,14.8l1.1,0.9L454.5,524.5z"/>
<path class="st0" d="M531.2,495c0.5-7.1-0.4-14.7-2.4-20.8c-1.3-3.9-4.2-9.3-6.8-12.2c-4.1-4.8-10.4-9.6-16.6-12.8
	c-1.9-1-3.9-1.9-4.4-2.1l-0.9-0.3l-0.3,3.5c-0.5,6.7,0.3,14.3,2.3,20.5c0.7,2.3,1.3,3.5,3.2,7c2.7,4.8,4.4,6.9,8.3,10.4
	c4.3,3.8,11.7,8.3,16.1,9.9l1.3,0.5L531.2,495z"/>
<path class="st0" d="M593.2,441c-2-6.8-5.4-13.7-9.4-18.7c-2.5-3.2-7.2-7.3-10.5-9.2c-5.5-3.1-13-5.5-20-6.3
	c-2.1-0.2-4.3-0.5-4.9-0.4l-1,0l0.9,3.4c1.8,6.5,5.2,13.3,9.1,18.5c1.4,1.9,2.4,2.9,5.4,5.5c4.2,3.5,6.4,4.9,11.3,6.9
	c5.3,2.1,13.8,3.8,18.5,3.8l1.4,0L593.2,441z"/>
<path class="st0" d="M631.6,369.5c-4.2-5.7-9.8-11-15.2-14.4c-3.4-2.2-9.2-4.4-13-5c-6.2-1.1-14.1-0.7-21,0.9
	c-2.1,0.5-4.2,1-4.7,1.2l-0.9,0.3l2,2.9c3.9,5.5,9.4,10.8,14.9,14.3c2,1.3,3.2,1.9,7,3.3c5.1,1.9,7.8,2.4,13,2.6
	c5.7,0.1,14.3-1.1,18.7-2.7l1.3-0.5L631.6,369.5z"/>
<path class="st0" d="M645.7,287.8c-5.9-4-13-7-19.2-8.3c-4-0.9-10.2-1-14-0.3c-6.2,1.1-13.5,4.2-19.4,8c-1.8,1.2-3.6,2.4-4,2.8
	l-0.8,0.6l2.9,2c5.5,3.8,12.5,6.9,18.9,8.3c2.3,0.5,3.7,0.7,7.7,0.7c5.5,0.1,8.1-0.4,13.1-2c5.4-1.8,13.1-5.9,16.6-9l1.1-0.9
	L645.7,287.8z"/>
<path class="st0" d="M629.9,207.1c-6.9-1.7-14.6-2.2-20.9-1.2c-4,0.6-9.9,2.6-13.2,4.5c-5.4,3.2-11.3,8.5-15.5,14.2
	c-1.3,1.7-2.5,3.5-2.8,4l-0.5,0.8l3.4,0.9c6.5,1.7,14.1,2.2,20.6,1.3c2.4-0.3,3.7-0.6,7.4-2c5.2-1.8,7.5-3.1,11.6-6.4
	c4.4-3.5,10.3-10.1,12.6-14.1l0.7-1.2L629.9,207.1z"/>
<path class="st0" d="M587.5,136.7c-7.1,0.7-14.5,3-20.1,6c-3.6,1.9-8.4,5.8-10.9,8.8c-4,4.9-7.7,11.9-9.7,18.6
	c-0.6,2.1-1.2,4.2-1.3,4.7l-0.2,1l3.5-0.3c6.7-0.7,14-2.8,19.8-5.8c2.1-1.1,3.2-1.8,6.3-4.4c4.2-3.5,6-5.5,8.8-10
	c3-4.8,6.2-13,7-17.5l0.2-1.4L587.5,136.7z"/>
<path class="st0" d="M523.5,85.1c-6.4,3.1-12.6,7.7-16.8,12.5c-2.7,3-5.9,8.3-7.2,12c-2.1,5.9-3.2,13.8-2.7,20.8
	c0.1,2.1,0.3,4.3,0.4,4.9l0.1,1l3.2-1.5c6.1-2.9,12.2-7.4,16.6-12.2c1.6-1.8,2.4-2.8,4.4-6.3c2.8-4.7,3.8-7.2,4.8-12.4
	c1.1-5.6,1.4-14.3,0.6-18.9l-0.2-1.4L523.5,85.1z"/>
<path class="st0" d="M448.2,55.9l-2.5,2.5c-4.9,5.1-9.2,11.6-11.5,17.5c-1.5,3.8-2.7,9.8-2.7,13.7c0,6.3,1.7,14,4.5,20.5
	c0.9,2,1.8,3.9,2.1,4.4l0.5,0.9l2.5-2.5c4.7-4.8,9-11.2,11.4-17.2c0.9-2.2,1.3-3.5,2-7.4c1-5.4,1.1-8.1,0.3-13.3
	c-0.8-5.6-3.6-13.9-5.9-17.9L448.2,55.9"/>
</svg>
